<?xml version="1.0" encoding="utf-8"?>
<!-- Generator: Adobe Illustrator 19.2.1, SVG Export Plug-In . SVG Version: 6.00 Build 0)  -->
<svg version="1.1" id="Layer_1" xmlns="http://www.w3.org/2000/svg" xmlns:xlink="http://www.w3.org/1999/xlink" x="0px" y="0px"
	 viewBox="0 0 149.1 149" style="enable-background:new 0 0 149.1 149;" xml:space="preserve">
<style type="text/css">
	.st0{fill:none;stroke:#54585B;stroke-width:2;stroke-miterlimit:10;}
	.st1{fill:#54585B;}
</style>
<g>
	<circle class="st0" cx="72" cy="74.2" r="69.5"/>
	<path class="st1" d="M94,95.7c-0.2,2.1-0.9,4.8-0.9,4.8H43.6c0,0-0.9-2.7-1.1-4.8c-0.4-4,2.3-5.8,5.9-7.3c4.3-1.8,10.3-4.9,13-5.9
		v-3.3c-1.6-1.9-2.2-4-2.9-6.8c-0.6-0.3-1-0.9-1.2-1.6l-0.5-5c0-0.7,0.3-1.4,0.9-1.8c0-1.7,0-0.7,0-1.8v-0.7c0-5.8,4.8-9.8,10.8-9.8
		s10.8,4,10.8,9.8v0.7c0,1.3,0,0.3,0,1.8c0.6,0.4,1.2,1.2,1.1,2.3c-0.2,1.3-0.7,4.5-0.7,4.5c-0.1,0.7-0.6,1.3-1.2,1.6
		c-0.8,3.1-1.2,4.9-3,6.9v3.2c2.7,1,8.4,4.1,12.6,5.9C91.8,89.9,94.4,91.8,94,95.7z M100.4,38.2H72.1c-3,0-4.7,1.4-4.7,4.7v5.4
		c0.5,0,1-0.1,1.5-0.1c7.9,0,13.9,5.5,13.9,12.9v1.7h5.8v10.8l9.6-10.8h2.6c2.9,0,4-1.3,4-4.3V42.9
		C104.8,39.7,103.8,38.2,100.4,38.2z"/>
</g>
</svg>
