<?xml version="1.0" encoding="utf-8"?>
<!-- Generator: Adobe Illustrator 19.2.1, SVG Export Plug-In . SVG Version: 6.00 Build 0)  -->
<svg version="1.1" id="Layer_1" xmlns="http://www.w3.org/2000/svg" xmlns:xlink="http://www.w3.org/1999/xlink" x="0px" y="0px"
	 viewBox="0 0 149.1 149.1" style="enable-background:new 0 0 149.1 149.1;" xml:space="preserve">
<style type="text/css">
	.st0{fill:none;stroke:#54585B;stroke-width:2;stroke-miterlimit:10;}
	.st1{fill:#54585B;}
</style>
<g>
	<circle class="st0" cx="72" cy="75.9" r="69.5"/>
	<path class="st1" d="M55.6,51.7c-1.1,0-1.9-0.9-1.9-1.9c0-1.1,0.9-1.9,1.9-1.9c1.1,0,1.9,0.9,1.9,1.9
		C57.5,50.9,56.7,51.7,55.6,51.7z M51,49.8c0-1.1-0.9-1.9-1.9-1.9s-2,0.8-2,1.9c0,1.1,0.9,1.9,1.9,1.9S51,50.9,51,49.8z M64.1,49.8
		c0-1.1-0.9-1.9-1.9-1.9c-1.1,0-1.9,0.9-1.9,1.9c0,1.1,0.9,1.9,1.9,1.9C63.2,51.7,64.1,50.9,64.1,49.8z M47.1,62.7
		c0,1.1,0.9,1.9,1.9,1.9s1.9-0.9,1.9-1.9c0-1.1-0.9-1.9-1.9-1.9S47.1,61.6,47.1,62.7z M47.1,56.1c0,1.1,0.9,1.9,1.9,1.9
		s1.9-0.9,1.9-1.9c0-1.1-0.9-1.9-1.9-1.9S47.1,55,47.1,56.1z M47.1,69.1c0,1.1,0.9,1.9,1.9,1.9s1.9-0.9,1.9-1.9
		c0-1.1-0.9-1.9-1.9-1.9S47.1,68,47.1,69.1z M93.8,51.8c1.1,0,1.9-0.9,1.9-1.9c0-1.1-0.9-1.9-1.9-1.9c-1.1,0-1.9,0.9-1.9,1.9
		C91.8,51,92.7,51.8,93.8,51.8z M100.3,51.8c1.1,0,1.9-0.9,1.9-1.9c0-1.1-0.9-1.9-1.9-1.9c-1.1,0-1.9,0.9-1.9,1.9
		C98.4,51,99.2,51.8,100.3,51.8z M87.2,51.8c1.1,0,1.9-0.9,1.9-1.9c0-1.1-0.9-1.9-1.9-1.9c-1.1,0-1.9,0.9-1.9,1.9
		C85.3,51,86.2,51.8,87.2,51.8z M100.3,60.7c-1.1,0-1.9,0.9-1.9,1.9c0,1.1,0.9,1.9,1.9,1.9c1.1,0,1.9-0.9,1.9-1.9
		S101.3,60.7,100.3,60.7z M100.3,54.2c-1.1,0-1.9,0.9-1.9,1.9c0,1.1,0.9,1.9,1.9,1.9c1.1,0,1.9-0.9,1.9-1.9S101.3,54.2,100.3,54.2z
		 M100.3,67.3c-1.1,0-1.9,0.9-1.9,1.9c0,1.1,0.9,1.9,1.9,1.9c1.1,0,1.9-0.9,1.9-1.9C102.2,68.1,101.3,67.3,100.3,67.3z M65.1,95.7
		c-2.4-1-5.7-3.1-7.2-3.6l-0.2-1.9c0.9-1.1,1-2.1,1.4-3.7c0.3-0.2,0.6-0.5,0.7-0.9l0.5-2.9c0-0.4-0.2-0.8-0.5-1
		c0-4.4-1.6-7.2-6.2-7.2c-4.5,0-6.2,2.8-6.2,7.2c-0.3,0.2-0.5,0.6-0.5,1l0.5,2.9c0.1,0.4,0.3,0.7,0.7,0.9c0.4,1.6,0.5,2.6,1.4,3.7
		l-0.1,1.9c-1.5,0.6-4.8,2.6-7.2,3.6c-2.1,0.9-3.6,2-3.4,4.2c0.1,1.2,0.6,2.6,0.6,2.6h14.3H68c0,0,0.5-1.4,0.6-2.6
		C68.7,97.7,67.2,96.6,65.1,95.7z M105.9,95.7c-2.4-1-5.7-3.1-7.2-3.6l-0.2-1.9c0.9-1.1,1-2.1,1.4-3.7c0.3-0.2,0.6-0.5,0.7-0.9
		l0.5-2.9c0-0.4-0.2-0.8-0.5-1c0-4.4-1.6-7.2-6.2-7.2c-4.5,0-6.2,2.8-6.2,7.2c-0.3,0.2-0.5,0.6-0.5,1l0.5,2.9
		c0.1,0.4,0.3,0.7,0.7,0.9c0.4,1.6,0.5,2.6,1.4,3.7l-0.1,1.9c-1.5,0.6-4.8,2.6-7.2,3.6c-2.1,0.9-3.6,2-3.4,4.2
		c0.1,1.2,0.6,2.6,0.6,2.6h14.3h14.3c0,0,0.5-1.4,0.6-2.6C109.5,97.7,108,96.6,105.9,95.7z M85.9,62c-2.4-1-5.7-3.1-7.2-3.6
		l-0.2-1.9c0.9-1.1,1-2.1,1.4-3.7c0.3-0.2,0.6-0.5,0.7-0.9l0.5-2.9c0-0.4-0.2-0.8-0.5-1c0-4.4-1.6-7.2-6.2-7.2
		c-4.5,0-6.2,2.8-6.2,7.2c-0.3,0.2-0.5,0.6-0.5,1l0.5,2.9c0.1,0.4,0.3,0.7,0.7,0.9c0.4,1.6,0.5,2.6,1.4,3.7l-0.2,1.9
		C68.6,59,65.3,61,62.9,62c-2.1,0.9-3.6,2-3.4,4.3c0.1,1.2,0.6,2.6,0.6,2.6h14.3h14.3c0,0,0.5-1.4,0.6-2.6C89.5,64,88,62.9,85.9,62z
		 M75.9,85.1c0-1.1-0.9-1.9-1.9-1.9c-1.1,0-1.9,0.9-1.9,1.9c0,1.1,0.9,1.9,1.9,1.9S75.9,86.1,75.9,85.1z M69.1,85.1
		c0-1.1-0.9-1.9-1.9-1.9c-1.1,0-1.9,0.9-1.9,1.9c0,1.1,0.9,1.9,1.9,1.9C68.3,87,69.1,86.1,69.1,85.1z M82.7,85.1
		c0-1.1-0.9-1.9-1.9-1.9c-1.1,0-1.9,0.9-1.9,1.9c0,1.1,0.9,1.9,1.9,1.9S82.7,86.1,82.7,85.1z"/>
</g>
</svg>
