<?xml version="1.0" encoding="utf-8"?>
<!-- Generator: Adobe Illustrator 19.2.1, SVG Export Plug-In . SVG Version: 6.00 Build 0)  -->
<svg version="1.1" id="Layer_1" xmlns="http://www.w3.org/2000/svg" xmlns:xlink="http://www.w3.org/1999/xlink" x="0px" y="0px"
	 viewBox="0 0 149.1 149" style="enable-background:new 0 0 149.1 149;" xml:space="preserve">
<style type="text/css">
	.st0{fill:#54585B;}
	.st1{fill:none;stroke:#54585B;stroke-width:2;stroke-miterlimit:10;}
</style>
<g>
	<path class="st0" d="M100.8,98.5c-0.2,2.4-1.1,3.7-1.1,3.7c-3.2,1.8-15.2,4-26.9,4s-22.8-2-26.4-4c0,0-0.9-1.3-1.1-3.7
		c-0.4-4.7,2.4-6.9,6.3-8.7c4.6-2.1,10.6-6.2,13.5-7.4l0.4-3.8c-1.7-2.3-1.9-4.2-2.7-7.6c-0.6-0.4-1.1-1.1-1.3-1.9l-1-5.9
		c0-0.9,0.3-1.7,1-2.1c0-8.9,3.1-14.6,11.5-14.6s11.5,5.8,11.5,14.6c0.6,0.4,1,1.2,1,2.1l-1,5.9c-0.2,0.8-0.6,1.5-1.3,1.9
		c-0.8,3.3-1,5.3-2.7,7.6l0.4,3.8c2.9,1.2,8.9,5.3,13.5,7.4C98.4,91.7,101.2,93.9,100.8,98.5z M49.9,86.3c2.2-1,5-2.6,7.4-4.1
		c0.1,0,0.1-0.1,0.2-0.1C55.7,81,54,80,53,79.6L52.6,77c1.1-1.5,1.3-2.9,1.8-5.1c0.4-0.3,0.7-0.7,0.9-1.3l0.7-4
		c0-0.6-0.2-1.1-0.7-1.4c0-6-2.1-9.9-7.8-9.9s-7.8,3.9-7.8,9.9C39.3,65.5,39,66,39,66.6l0.7,4c0.1,0.5,0.4,1,0.8,1.3
		c0.5,2.3,0.7,3.6,1.8,5.1l-0.2,2.6c-1.9,0.8-6.1,3.6-9.2,5c-2.6,1.2-4.6,2.7-4.3,5.9c0.2,1.7,0.8,3,0.8,3c1.9,1,6.7,2.3,12.4,2.9
		C42,89.9,47.5,87.4,49.9,86.3z M113.2,84.7c-3.1-1.4-7.2-4.2-9.2-5l-0.3-2.6c1.1-1.5,1.3-2.9,1.8-5.1c0.4-0.3,0.8-0.7,0.9-1.3
		l0.7-4c0-0.6-0.2-1.1-0.7-1.4c0-6-2.1-9.9-7.8-9.9c-5.7,0-7.8,3.9-7.8,9.9c-0.4,0.2-0.7,0.7-0.7,1.3l0.7,4c0.1,0.5,0.4,1,0.9,1.3
		c0.6,2.3,0.7,3.6,1.8,5.1l-0.3,2.6c-1,0.4-2.7,1.4-4.5,2.5c0.1,0,0.1,0.1,0.2,0.1c2.4,1.4,5.1,3,7.4,4.1c2.4,1.1,7.8,3.6,8.1,10.1
		c5.7-0.6,10.7-1.9,12.4-2.8c0,0,0.6-1.3,0.8-3C117.7,87.4,115.8,85.9,113.2,84.7z"/>
	<circle class="st1" cx="73" cy="75.8" r="69.5"/>
</g>
</svg>
