<?xml version="1.0" encoding="utf-8"?>
<!-- Generator: Adobe Illustrator 19.2.1, SVG Export Plug-In . SVG Version: 6.00 Build 0)  -->
<svg version="1.1" id="Layer_1" xmlns="http://www.w3.org/2000/svg" xmlns:xlink="http://www.w3.org/1999/xlink" x="0px" y="0px"
	 viewBox="0 0 149.1 149.1" style="enable-background:new 0 0 149.1 149.1;" xml:space="preserve">
<style type="text/css">
	.st0{fill:none;stroke:#54585B;stroke-width:2;stroke-miterlimit:10;}
	.st1{fill:#54585B;}
</style>
<g>
	<circle class="st0" cx="73" cy="74.3" r="69.5"/>
	<path class="st1" d="M103.5,48.8H43.7c-3.9,0-5.6,1.4-5.6,4.8v41.5c0,3.4,1.7,4.8,5.6,4.8h59.8c3.9,0,5.6-1.4,5.6-4.8V53.6
		C109.1,50.1,107.4,48.8,103.5,48.8z M102.1,93.9c0,1-0.2,1.3-1.4,1.3H46.3c-1.2,0-1.4-0.2-1.4-1.2V54.5c0-1,0.2-1.2,1.4-1.2h54.4
		c1.2,0,1.4,0.1,1.4,1.2C102.1,54.5,102.1,93.9,102.1,93.9z M59.5,83.4c0-1.1-0.2-1.3-1.4-1.3h-4.7c-1.2,0-1.4,0.2-1.4,1.3v6.5
		c0,1.1,0.2,1.3,1.4,1.3h4.7c1.2,0,1.4-0.2,1.4-1.3V83.4z M71.4,77c0-1.1-0.2-1.3-1.4-1.3h-4.8c-1.1,0-1.4,0.2-1.4,1.3v12.9
		c0,1.1,0.2,1.3,1.4,1.3H70c1.2,0,1.4-0.2,1.4-1.3V77z M94.9,72.8c0-1.2-0.3-1.4-1.5-1.4h-4.5c-1.2,0-1.5,0.3-1.5,1.4v17
		c0,1.2,0.3,1.4,1.5,1.4h4.5c1.2,0,1.5-0.3,1.5-1.4V72.8z M83.4,81.2c0-1.1-0.2-1.3-1.4-1.3h-4.7c-1.2,0-1.4,0.2-1.4,1.3v8.7
		c0,1.1,0.2,1.3,1.4,1.3H82c1.2,0,1.4-0.2,1.4-1.3V81.2z M54.7,76.3c-0.5,0-1.3-0.3-1.6-0.7c-0.7-0.8-0.4-2.1,0.4-2.8L66.8,64
		c0.3-0.3,0.8-0.5,1.2-0.5c0.5,0,0.9,0.2,1.3,0.5l8.7,5.1l8.3-7.8l-2.9-2.8l9-1l-1,8.8L89,63.9l-9.3,9c-0.3,0.4-0.8,0.6-1.3,0.7l0,0
		c-0.6,0-1.1-0.2-1.4-0.5l-9-5.3l-12,7.9C55.6,76.2,55.1,76.3,54.7,76.3z"/>
</g>
</svg>
