<?xml version="1.0" encoding="utf-8"?>
<!-- Generator: Adobe Illustrator 19.2.1, SVG Export Plug-In . SVG Version: 6.00 Build 0)  -->
<svg version="1.1" id="Layer_1" xmlns="http://www.w3.org/2000/svg" xmlns:xlink="http://www.w3.org/1999/xlink" x="0px" y="0px"
	 viewBox="0 0 359.8 184.8" style="enable-background:new 0 0 359.8 184.8;" xml:space="preserve">
<style type="text/css">
	.st0{clip-path:url(#SVGID_2_);}
</style>
<g id="Black_Out._arrows_footer">
	<g>
		<defs>
			<rect id="SVGID_1_" x="18.2" y="14.8" width="333.2" height="157.4"/>
		</defs>
		<clipPath id="SVGID_2_">
			<use xlink:href="#SVGID_1_"  style="overflow:visible;"/>
		</clipPath>
		<path class="st0" d="M23.3,147.7L77,93.9L23.3,39.6l19.1-19.2l73.4,73.4l-73.4,73.2L23.3,147.7z M18.2,39.6l53.7,54.2l-53.7,53.9
			l24.2,24.4l78.6-78.3L42.3,15.3L18.2,39.6z"/>
		<path class="st0" d="M100.1,147.2l53.8-53.9l-53.8-54.3l19.1-19.2l73.4,73.4l-73.4,73.2L100.1,147.2z M119.2,14.8L95,39.1
			l53.7,54.2L95,147.2l24.2,24.4l78.6-78.3L119.2,14.8z"/>
		<path class="st0" d="M176.9,147.7l53.8-53.9l-53.8-54.3L196,20.4l73.4,73.4L196,167.1L176.9,147.7z M171.8,39.6l53.7,54.2
			l-53.7,53.9l24.2,24.4l78.6-78.3L196,15.3L171.8,39.6z"/>
		<path class="st0" d="M253.8,147.2l53.8-53.9l-53.8-54.3l19.1-19.2l73.4,73.4l-73.4,73.2L253.8,147.2z M272.8,14.8l-24.2,24.3
			l53.7,54.2l-53.7,53.9l24.2,24.4l78.6-78.3L272.8,14.8z"/>
	</g>
</g>
</svg>
