<?xml version="1.0" encoding="utf-8"?>
<!-- Generator: Adobe Illustrator 19.2.1, SVG Export Plug-In . SVG Version: 6.00 Build 0)  -->
<svg version="1.1" id="Layer_1" xmlns="http://www.w3.org/2000/svg" xmlns:xlink="http://www.w3.org/1999/xlink" x="0px" y="0px"
	 viewBox="0 0 155 149" style="enable-background:new 0 0 155 149;" xml:space="preserve">
<style type="text/css">
	.st0{fill:#54585B;}
	.st1{fill:none;stroke:#54585B;stroke-width:2;stroke-miterlimit:10;}
</style>
<g>
	<circle class="st1" cx="74.9" cy="75.8" r="69.5"/>
	<path class="st0" d="M58.5,51.6c-1.1,0-1.9-0.9-1.9-1.9c0-1.1,0.9-1.9,1.9-1.9c1.1,0,1.9,0.9,1.9,1.9
		C60.4,50.8,59.6,51.6,58.5,51.6z M53.9,49.7c0-1.1-0.9-1.9-1.9-1.9S50,48.6,50,49.7c0,1.1,0.9,1.9,1.9,1.9S53.9,50.8,53.9,49.7z
		 M67,49.7c0-1.1-0.9-1.9-1.9-1.9c-1.1,0-1.9,0.9-1.9,1.9c0,1.1,0.9,1.9,1.9,1.9C66.1,51.6,67,50.8,67,49.7z M50,62.6
		c0,1.1,0.9,1.9,1.9,1.9s1.9-0.9,1.9-1.9c0-1.1-0.9-1.9-1.9-1.9S50,61.5,50,62.6z M50,56c0,1.1,0.9,1.9,1.9,1.9s1.9-0.9,1.9-1.9
		c0-1.1-0.9-1.9-1.9-1.9S50,54.9,50,56z M50,69c0,1.1,0.9,1.9,1.9,1.9s1.9-0.9,1.9-1.9c0-1.1-0.9-1.9-1.9-1.9S50,67.9,50,69z
		 M96.7,51.7c1.1,0,1.9-0.9,1.9-1.9c0-1.1-0.9-1.9-1.9-1.9c-1.1,0-1.9,0.9-1.9,1.9C94.7,50.9,95.6,51.7,96.7,51.7z M103.2,51.7
		c1.1,0,1.9-0.9,1.9-1.9c0-1.1-0.9-1.9-1.9-1.9c-1.1,0-1.9,0.9-1.9,1.9C101.3,50.9,102.1,51.7,103.2,51.7z M90.1,51.7
		c1.1,0,1.9-0.9,1.9-1.9c0-1.1-0.9-1.9-1.9-1.9c-1.1,0-1.9,0.9-1.9,1.9C88.2,50.9,89.1,51.7,90.1,51.7z M103.2,60.6
		c-1.1,0-1.9,0.9-1.9,1.9c0,1.1,0.9,1.9,1.9,1.9c1.1,0,1.9-0.9,1.9-1.9C105.1,61.5,104.2,60.6,103.2,60.6z M103.2,54.1
		c-1.1,0-1.9,0.9-1.9,1.9c0,1.1,0.9,1.9,1.9,1.9c1.1,0,1.9-0.9,1.9-1.9C105.1,55,104.2,54.1,103.2,54.1z M103.2,67.2
		c-1.1,0-1.9,0.9-1.9,1.9c0,1.1,0.9,1.9,1.9,1.9c1.1,0,1.9-0.9,1.9-1.9C105.1,68,104.2,67.2,103.2,67.2z M68,95.6
		c-2.4-1-5.7-3.1-7.2-3.6l-0.2-1.9c0.9-1.1,1-2.1,1.4-3.7c0.3-0.2,0.6-0.5,0.7-0.9l0.5-2.9c0-0.4-0.2-0.8-0.5-1
		c0-4.4-1.6-7.2-6.2-7.2c-4.5,0-6.2,2.8-6.2,7.2c-0.3,0.2-0.5,0.6-0.5,1l0.5,2.9c0.1,0.4,0.3,0.7,0.7,0.9c0.4,1.6,0.5,2.6,1.4,3.7
		L52.3,92c-1.5,0.6-4.8,2.6-7.2,3.6c-2.1,0.9-3.6,2-3.4,4.2c0.1,1.2,0.6,2.6,0.6,2.6h14.3h14.3c0,0,0.5-1.4,0.6-2.6
		C71.6,97.6,70.1,96.5,68,95.6z M108.8,95.6c-2.4-1-5.7-3.1-7.2-3.6l-0.2-1.9c0.9-1.1,1-2.1,1.4-3.7c0.3-0.2,0.6-0.5,0.7-0.9
		l0.5-2.9c0-0.4-0.2-0.8-0.5-1c0-4.4-1.6-7.2-6.2-7.2c-4.5,0-6.2,2.8-6.2,7.2c-0.3,0.2-0.5,0.6-0.5,1l0.5,2.9
		c0.1,0.4,0.3,0.7,0.7,0.9c0.4,1.6,0.5,2.6,1.4,3.7L93.1,92c-1.5,0.6-4.8,2.6-7.2,3.6c-2.1,0.9-3.6,2-3.4,4.2
		c0.1,1.2,0.6,2.6,0.6,2.6h14.3h14.3c0,0,0.5-1.4,0.6-2.6C112.4,97.6,110.9,96.5,108.8,95.6z M88.8,61.9c-2.4-1-5.7-3.1-7.2-3.6
		l-0.2-1.9c0.9-1.1,1-2.1,1.4-3.7c0.3-0.2,0.6-0.5,0.7-0.9l0.5-2.9c0-0.4-0.2-0.8-0.5-1c0-4.4-1.6-7.2-6.2-7.2
		c-4.5,0-6.2,2.8-6.2,7.2c-0.3,0.2-0.5,0.6-0.5,1l0.5,2.9c0.1,0.4,0.3,0.7,0.7,0.9c0.4,1.6,0.5,2.6,1.4,3.7l-0.2,1.9
		c-1.5,0.6-4.8,2.6-7.2,3.6c-2.1,0.9-3.6,2-3.4,4.3c0.1,1.2,0.6,2.6,0.6,2.6h14.3h14.3c0,0,0.5-1.4,0.6-2.6
		C92.4,63.9,90.9,62.8,88.8,61.9z M78.8,85c0-1.1-0.9-1.9-1.9-1.9c-1.1,0-1.9,0.9-1.9,1.9c0,1.1,0.9,1.9,1.9,1.9
		C77.9,86.9,78.8,86,78.8,85z M72,85c0-1.1-0.9-1.9-1.9-1.9c-1.1,0-1.9,0.9-1.9,1.9c0,1.1,0.9,1.9,1.9,1.9C71.2,86.9,72,86,72,85z
		 M85.6,85c0-1.1-0.9-1.9-1.9-1.9c-1.1,0-1.9,0.9-1.9,1.9c0,1.1,0.9,1.9,1.9,1.9C84.7,86.9,85.6,86,85.6,85z"/>
</g>
</svg>
