<?xml version="1.0" encoding="utf-8"?>
<!-- Generator: Adobe Illustrator 19.2.1, SVG Export Plug-In . SVG Version: 6.00 Build 0)  -->
<svg version="1.1" id="Layer_1" xmlns="http://www.w3.org/2000/svg" xmlns:xlink="http://www.w3.org/1999/xlink" x="0px" y="0px"
	 viewBox="0 0 155 149" style="enable-background:new 0 0 155 149;" xml:space="preserve">
<style type="text/css">
	.st0{fill:#54585B;}
	.st1{fill:none;stroke:#54585B;stroke-width:2;stroke-miterlimit:10;}
</style>
<g>
	<circle class="st1" cx="75.9" cy="74.2" r="69.5"/>
	<path class="st0" d="M106.4,48.7H46.6c-3.9,0-5.6,1.4-5.6,4.8v41.5c0,3.4,1.7,4.8,5.6,4.8h59.8c3.9,0,5.6-1.4,5.6-4.8V53.5
		C112,50,110.3,48.7,106.4,48.7z M105,93.8c0,1-0.2,1.3-1.4,1.3H49.2c-1.2,0-1.4-0.2-1.4-1.2V54.4c0-1,0.2-1.2,1.4-1.2h54.4
		c1.2,0,1.4,0.1,1.4,1.2V93.8z M62.4,83.3c0-1.1-0.2-1.3-1.4-1.3h-4.7c-1.2,0-1.4,0.2-1.4,1.3v6.5c0,1.1,0.2,1.3,1.4,1.3H61
		c1.2,0,1.4-0.2,1.4-1.3V83.3z M74.3,76.9c0-1.1-0.2-1.3-1.4-1.3h-4.8c-1.1,0-1.4,0.2-1.4,1.3v12.9c0,1.1,0.2,1.3,1.4,1.3h4.8
		c1.2,0,1.4-0.2,1.4-1.3V76.9z M97.8,72.7c0-1.2-0.3-1.4-1.5-1.4h-4.5c-1.2,0-1.5,0.3-1.5,1.4v17c0,1.2,0.3,1.4,1.5,1.4h4.5
		c1.2,0,1.5-0.3,1.5-1.4V72.7z M86.3,81.1c0-1.1-0.2-1.3-1.4-1.3h-4.7c-1.2,0-1.4,0.2-1.4,1.3v8.7c0,1.1,0.2,1.3,1.4,1.3h4.7
		c1.2,0,1.4-0.2,1.4-1.3V81.1z M57.6,76.2c-0.5,0-1.3-0.3-1.6-0.7c-0.7-0.8-0.4-2.1,0.4-2.8l13.3-8.8c0.3-0.3,0.8-0.5,1.2-0.5
		c0.5,0,0.9,0.2,1.3,0.5l8.7,5.1l8.3-7.8l-2.9-2.8l9-1l-1,8.8l-2.4-2.4l-9.3,9c-0.3,0.4-0.8,0.6-1.3,0.7c0,0,0,0,0,0
		c-0.6,0-1.1-0.2-1.4-0.5l-9-5.3l-12,7.9C58.5,76.1,58,76.2,57.6,76.2z"/>
</g>
</svg>
